<?xml version="1.0" encoding="UTF-8"?><svg xmlns="http://www.w3.org/2000/svg" viewBox="0 0 1345.69 937.67"><defs><style>.cls-1,.cls-2,.cls-3{fill:none;}.cls-1,.cls-4,.cls-5,.cls-6,.cls-7,.cls-8,.cls-9{stroke-width:0px;}.cls-2,.cls-3,.cls-10{stroke:#9fe8ff;stroke-miterlimit:10;}.cls-2,.cls-10{stroke-width:.05px;}.cls-3{stroke-width:.2px;}.cls-10{fill:#fff200;}.cls-4{fill:#1e4566;}.cls-5{fill:#bcbec0;}.cls-6{fill:#9fe8ff;}.cls-7{fill:#fff;}.cls-8{fill:#fff7eb;}.cls-9{fill:#050914;}</style></defs><g id="Main"><g id="Layer_82"><ellipse class="cls-2" cx="833.77" cy="510.51" rx="33.39" ry="8.6" transform="translate(-135.59 383.49) rotate(-24.01)"/><ellipse class="cls-2" cx="431.86" cy="734.58" rx="33.39" ry="8.6" transform="translate(-107.15 74.6) rotate(-8.79)"/><ellipse class="cls-2" cx="1060.27" cy="591.52" rx="4.92" ry="19.08" transform="translate(163.92 1410.44) rotate(-71.57)"/><ellipse class="cls-2" cx="706.06" cy="318.34" rx="10.56" ry="40.98" transform="translate(215.02 917.29) rotate(-74.92)"/></g><g id="Layer_82_copy_2"><path class="cls-6" d="M809.09,526.23c-3.19,0-5.21-.72-5.84-2.13-.94-2.11,1.36-5.51,6.46-9.57,5.1-4.05,12.4-8.28,20.54-11.91,8.15-3.63,16.17-6.23,22.59-7.31,6.44-1.08,10.5-.52,11.43,1.59.94,2.11-1.36,5.51-6.46,9.57-5.1,4.05-12.4,8.28-20.54,11.91-8.15,3.63-16.17,6.22-22.59,7.31-2.14.36-4.01.54-5.6.54ZM858.45,494.84c-6.32,0-16.89,2.81-28.17,7.84-8.14,3.63-15.44,7.86-20.53,11.9-2.48,1.97-4.3,3.79-5.42,5.4-1.15,1.67-1.5,3.05-1.03,4.1,1.93,4.32,17.16,1.74,33.96-5.74,8.14-3.63,15.44-7.86,20.53-11.91,2.48-1.97,4.3-3.79,5.42-5.4,1.15-1.67,1.5-3.05,1.03-4.1-.63-1.42-2.71-2.1-5.8-2.1Z"/><path class="cls-6" d="M416.06,744.53c-2.36,0-4.58-.1-6.6-.3-6.49-.64-10.26-2.26-10.62-4.54-.35-2.28,2.75-4.96,8.75-7.53,5.98-2.57,14.14-4.74,22.95-6.1,8.81-1.36,17.24-1.76,23.72-1.12,6.49.64,10.26,2.25,10.62,4.54h0c.35,2.28-2.75,4.96-8.75,7.53-5.99,2.57-14.14,4.74-22.95,6.1-6.06.94-11.93,1.42-17.12,1.42ZM447.66,724.69c-5.18,0-11.05.48-17.11,1.42-18.18,2.81-32.38,8.9-31.66,13.57.18,1.14,1.21,2.11,3.09,2.89,1.82.75,4.33,1.29,7.48,1.61,6.48.64,14.9.25,23.71-1.12,8.81-1.36,16.96-3.53,22.94-6.09,2.91-1.25,5.14-2.52,6.65-3.79,1.55-1.31,2.25-2.55,2.07-3.69-.18-1.14-1.21-2.11-3.09-2.89-1.82-.75-4.33-1.29-7.48-1.61-2.02-.2-4.24-.3-6.6-.3Z"/><path class="cls-6" d="M1073.66,599.17c-.53,0-1.09-.02-1.69-.06-3.71-.26-8.42-1.29-13.26-2.9s-9.22-3.61-12.35-5.63c-3.14-2.03-4.63-3.84-4.21-5.09.42-1.26,2.71-1.81,6.42-1.55,3.71.26,8.42,1.29,13.26,2.9,4.84,1.61,9.22,3.61,12.35,5.63,3.14,2.03,4.63,3.83,4.21,5.09h0c-.35,1.05-2.01,1.61-4.73,1.61ZM1046.87,583.92c-2.69,0-4.33.54-4.68,1.58-.41,1.23,1.08,3.02,4.19,5.04,3.12,2.02,7.5,4.02,12.33,5.63,4.83,1.61,9.54,2.64,13.25,2.9,3.7.26,5.96-.28,6.37-1.51h0c.41-1.23-1.08-3.02-4.19-5.03-3.12-2.02-7.5-4.02-12.34-5.63-4.83-1.61-9.54-2.64-13.25-2.9-.6-.04-1.17-.06-1.7-.06Z"/><path class="cls-6" d="M732.77,333.12c-.22,0-.45,0-.67,0-7.99-.09-18.22-1.7-28.79-4.55-10.57-2.85-20.22-6.59-27.18-10.52-6.97-3.94-10.4-7.62-9.66-10.36.72-2.66,5.28-4.11,12.88-4.11.22,0,.45,0,.68,0,7.99.09,18.22,1.7,28.79,4.55,10.57,2.85,20.22,6.58,27.18,10.52,6.96,3.94,10.4,7.62,9.66,10.36h0c-.72,2.66-5.28,4.11-12.88,4.11ZM679.36,303.62c-7.27,0-12.11,1.35-12.84,4.07-1.51,5.61,15,14.95,36.8,20.82,10.57,2.85,20.79,4.46,28.77,4.55.23,0,.45,0,.67,0,3.57,0,6.49-.32,8.67-.96,2.39-.7,3.79-1.75,4.16-3.11.37-1.37-.32-2.98-2.03-4.78-1.66-1.75-4.22-3.61-7.6-5.52-6.95-3.94-16.6-7.67-27.17-10.52-11.23-3.03-21.71-4.55-29.44-4.55Z"/></g><g id="Graphic"><g id="Main_Stars"><circle class="cls-8" cx="706.13" cy="317.18" r="5.71"/><circle class="cls-8" cx="431.9" cy="733.44" r="5.71"/><circle class="cls-8" cx="833.77" cy="509.37" r="5.71"/><circle class="cls-8" cx="431.86" cy="733.45" r="5.71"/><circle class="cls-8" cx="1060.27" cy="590.87" r="3.26"/><circle class="cls-8" cx="706.06" cy="316.95" r="7"/></g><g id="Extra_Stars"><circle class="cls-8" cx="474.29" cy="243.03" r="3.13"/><circle class="cls-8" cx="790.44" cy="425.67" r="3.13"/><circle class="cls-8" cx="543.53" cy="488.63" r="3.13"/><circle class="cls-8" cx="972.62" cy="640.6" r="3.13"/><circle class="cls-8" cx="468.02" cy="802.39" r="3.13"/><circle class="cls-8" cx="1072.77" cy="800.25" r="3.13"/><circle class="cls-8" cx="1151.23" cy="737.63" r="3.13"/><circle class="cls-8" cx="962.57" cy="469.99" r="3.13"/><circle class="cls-8" cx="617.71" cy="663.78" r="3.13"/><circle class="cls-8" cx="1154.36" cy="514.17" r="3.13"/><circle class="cls-8" cx="1079.03" cy="362.66" r="3.13"/><circle class="cls-8" cx="1154.36" cy="543.24" r="3.13"/></g><g id="Star_Names"><path class="cls-7" d="M826.29,520.56v.27c0,.34-.12.63-.36.87s-.53.36-.87.36h-1.88v-4.86h1.88c.34,0,.63.12.87.36s.36.53.36.87v.26c0,.36-.14.67-.42.93.28.26.42.57.42.93ZM825.66,518.69v-.25c0-.17-.06-.32-.18-.44-.12-.12-.26-.18-.43-.18h-1.25v1.49h1.25c.17,0,.31-.06.43-.18.12-.12.18-.27.18-.43ZM825.66,520.83v-.26c0-.17-.06-.32-.18-.44-.12-.12-.26-.18-.43-.18h-1.24v1.49h1.24c.17,0,.31-.06.43-.18.12-.12.18-.27.18-.43Z"/><path class="cls-7" d="M830.81,519.69v.74c0,.08-.03.15-.09.22-.06.06-.13.09-.22.09h-2.17v.18c0,.1.04.19.14.27l.18.15c.1.08.19.11.28.11h1.58c.08,0,.16.03.22.09.06.06.09.13.09.22s-.03.15-.09.22c-.06.06-.13.09-.21.09h-1.62c-.11,0-.22-.02-.34-.07-.12-.04-.21-.09-.26-.14l-.27-.24c-.09-.07-.16-.16-.21-.29-.06-.12-.09-.23-.09-.34v-1.41c0-.08.03-.19.09-.33.06-.14.14-.24.24-.32l.26-.2c.17-.14.35-.21.56-.21h.86c.22,0,.42.09.61.27l.23.22c.17.15.25.37.25.67ZM828.34,519.65v.48h1.86v-.43c0-.11-.04-.2-.11-.26l-.18-.16c-.09-.08-.18-.11-.25-.11h-.77c-.09,0-.18.03-.26.1l-.18.15c-.08.06-.12.14-.12.24Z"/><path class="cls-7" d="M833.7,519.25l-.84.54v1.96c0,.08-.03.15-.09.22-.06.06-.13.09-.22.09s-.16-.03-.22-.09c-.06-.06-.09-.13-.09-.22v-2.91c0-.08.03-.16.09-.22.06-.06.13-.09.22-.09s.15.03.22.09c.06.06.09.14.09.22v.21l.56-.34c.19-.12.4-.18.64-.18h.29c.24,0,.46.09.63.26.18.17.27.39.28.64l.08,2.33c0,.08-.03.15-.09.22-.06.06-.13.09-.22.09-.08,0-.15-.03-.21-.08-.06-.06-.09-.13-.1-.23l-.09-2.29c0-.21-.12-.32-.34-.32h-.3c-.09,0-.19.04-.3.11Z"/><path class="cls-7" d="M838.22,519.25l-.84.54v1.96c0,.08-.03.15-.09.22-.06.06-.13.09-.22.09s-.16-.03-.22-.09c-.06-.06-.09-.13-.09-.22v-2.91c0-.08.03-.16.09-.22.06-.06.13-.09.22-.09s.15.03.22.09c.06.06.09.14.09.22v.21l.56-.34c.19-.12.4-.18.64-.18h.29c.24,0,.46.09.63.26.18.17.27.39.28.64l.08,2.33c0,.08-.03.15-.09.22-.06.06-.13.09-.22.09-.08,0-.15-.03-.21-.08-.06-.06-.09-.13-.1-.23l-.09-2.29c0-.21-.12-.32-.34-.32h-.3c-.09,0-.19.04-.3.11Z"/><path class="cls-7" d="M842.75,521.44l1.03-.66v-1.94c0-.08.03-.16.09-.22.06-.06.13-.09.22-.09s.16.03.22.09c.06.06.09.14.09.22v2.91c0,.08-.03.15-.09.22-.06.06-.13.09-.22.09s-.15-.03-.22-.09c-.06-.06-.09-.13-.09-.22v-.24l-.53.35c-.21.13-.42.2-.64.2h-.28c-.25,0-.47-.09-.65-.26-.18-.18-.28-.39-.29-.64l-.09-2.31c0-.08.02-.15.09-.21.06-.06.14-.09.22-.09s.15.03.21.09c.06.06.09.13.09.22l.08,2.27c0,.22.13.33.38.33h.37Z"/><path class="cls-4" d="M831.4,523.44h.56c.07,0,.13.03.2.09.06.06.09.13.09.21,0,.03-.01.06-.03.08-.02.02-.05.03-.07.03-.04,0-.06,0-.08-.03s-.03-.05-.04-.09c-.01-.05-.04-.07-.08-.07h-.54s-.04,0-.04.03c0,.01,0,.02.02.04l.81,1.03s.06.1.06.16c0,.06-.02.12-.07.17-.05.05-.1.07-.16.07h-.58c-.08,0-.15-.03-.2-.09-.06-.06-.09-.12-.09-.19,0-.08.04-.12.11-.12.03,0,.05.01.08.03.02.02.03.05.03.07,0,.02,0,.04.02.06.02.02.04.02.06.02h.54s.04,0,.04-.03c0,0,0-.02-.02-.03l-.81-1.03s-.06-.1-.06-.16c0-.07.02-.13.07-.17.05-.05.11-.07.17-.07Z"/><path class="cls-4" d="M833.52,525.15h-.22c-.09,0-.17-.03-.23-.1-.06-.06-.1-.14-.1-.23v-.7h-.11s-.06-.01-.08-.03c-.02-.02-.03-.05-.03-.08s.01-.06.03-.08c.02-.02.05-.03.08-.03h.11v-.27s.01-.06.03-.08c.02-.02.05-.03.08-.03s.05.01.08.03c.02.02.03.05.03.08v.27h.44s.05.01.08.03.03.05.03.08-.01.06-.03.08-.05.03-.08.03h-.44v.7s.01.05.03.08c.02.02.05.03.08.03h.21c.06,0,.1-.03.12-.09.02-.06.06-.09.11-.09.03,0,.06.01.08.03.02.02.03.05.03.08,0,.07-.03.13-.09.2s-.14.1-.24.1Z"/><path class="cls-4" d="M834.67,524.37h.42s.06,0,.1.02v-.15s-.01-.06-.03-.08c-.02-.02-.05-.03-.08-.03h-.41s-.05-.01-.08-.03-.03-.05-.03-.08,0-.06.03-.08c.02-.02.05-.03.08-.03h.41c.09,0,.17.03.23.09s.1.14.1.23l.03.81s-.01.06-.03.08-.05.03-.08.03c-.03,0-.06-.01-.08-.03s-.03-.05-.03-.08l-.18.11h-.37c-.09,0-.17-.03-.23-.1-.06-.06-.1-.14-.1-.23v-.13c0-.09.03-.17.1-.23s.14-.1.23-.1ZM835.22,524.79v-.09s-.02-.06-.04-.08-.05-.03-.08-.03h-.43s-.06.01-.08.03c-.02.02-.03.05-.03.08v.12s.01.05.03.08.05.03.08.03h.31l.24-.14Z"/><path class="cls-4" d="M835.95,525.04v-1.03s0-.06.03-.08.05-.03.08-.03.06.01.08.03c.02.02.03.05.03.08v.14l.18-.15c.07-.06.14-.09.21-.09h.16c.09,0,.17.03.23.1.06.06.1.14.1.23v.06s-.01.06-.03.08c-.02.02-.05.03-.08.03s-.06-.01-.08-.03c-.02-.02-.03-.05-.03-.08v-.06s-.01-.06-.03-.08c-.02-.02-.05-.03-.08-.03h-.14s-.06.02-.1.05l-.31.27v.61s-.01.06-.03.08-.05.03-.08.03-.06-.01-.08-.03-.03-.05-.03-.08Z"/><path class="cls-4" d="M858.89,497.15v-.57h.27s.06.01.08.03c.02.02.03.05.03.08v.14s-.01.06-.03.08-.05.03-.08.03h-.19v.19s0,.02-.01.03c0,0-.02.01-.03.01s-.02,0-.03-.01c0,0-.01-.02-.01-.03ZM858.97,496.88h.19s.02,0,.03-.01c0,0,.01-.02.01-.03v-.14s0-.02-.01-.03c0,0-.02-.01-.03-.01h-.19v.22Z"/><path class="cls-4" d="M859.77,497.19h-.23s-.02,0-.03-.01c0,0-.01-.02-.01-.03s0-.02.01-.03c0,0,.02-.01.03-.01h.08v-.45h-.08s-.02,0-.03-.01c0,0-.01-.02-.01-.03s0-.02.01-.03c0,0,.02-.01.03-.01h.12s.02,0,.03.01c0,0,.01.02.01.03v.49h.08s.02,0,.03.01c0,0,.01.02.01.03s0,.02-.01.03-.02.01-.03.01Z"/><path class="cls-4" d="M860.14,496.91h.15s.02,0,.04,0v-.05s0-.02-.01-.03c0,0-.02-.01-.03-.01h-.15s-.02,0-.03-.01c0,0-.01-.02-.01-.03s0-.02.01-.03c0,0,.02-.01.03-.01h.15s.06.01.08.03c.02.02.03.05.04.08v.29s0,.02,0,.03c0,0-.02.01-.03.01-.01,0-.02,0-.03-.01,0,0-.01-.02-.01-.03l-.07.04h-.13s-.06-.01-.08-.03-.03-.05-.03-.08v-.04s.01-.06.03-.08c.02-.02.05-.03.08-.03ZM860.33,497.06v-.03s0-.02-.01-.03c0,0-.02-.01-.03-.01h-.15s-.02,0-.03.01c0,0-.01.02-.01.03v.04s0,.02.01.03c0,0,.02.01.03.01h.11l.08-.05Z"/><path class="cls-4" d="M860.77,496.84l-.1.07v.25s0,.02-.01.03c0,0-.02.01-.03.01-.01,0-.02,0-.03-.01,0,0-.01-.02-.01-.03v-.36s0-.02.01-.03.02-.01.03-.01c0,0,.02,0,.03.01,0,0,.01.02.01.03v.03l.07-.04s.05-.02.08-.02h.04s.06.01.08.03c.02.02.03.05.04.08v.29s0,.02,0,.03c0,0-.02.01-.03.01,0,0-.02,0-.03-.01s-.01-.02-.01-.03v-.29s-.03-.04-.05-.04h-.04s-.02,0-.04.01Z"/><path class="cls-4" d="M861.54,496.89v.09s0,.02-.01.03c0,0-.02.01-.03.01h-.27v.02s0,.02.02.03l.02.02s.02.01.04.01h.2s.02,0,.03.01.01.02.01.03,0,.02-.01.03c0,0-.02.01-.03.01h-.2s-.03,0-.04,0c-.01,0-.03-.01-.03-.02l-.03-.03s-.02-.02-.03-.04c0-.02-.01-.03-.01-.04v-.18s0-.02.01-.04.02-.03.03-.04l.03-.03s.04-.03.07-.03h.11s.05.01.08.03l.03.03s.03.05.03.08ZM861.23,496.89v.06h.23v-.05s0-.03-.01-.03l-.02-.02s-.02-.01-.03-.01h-.1s-.02,0-.03.01l-.02.02s-.01.02-.01.03Z"/><path class="cls-4" d="M861.98,497.19h-.08s-.06-.01-.08-.03-.03-.05-.03-.08v-.25h-.04s-.02,0-.03-.01c0,0-.01-.02-.01-.03,0-.01,0-.02.01-.03,0,0,.02-.01.03-.01h.04v-.09s0-.02.01-.03c0,0,.02-.01.03-.01,0,0,.02,0,.03.01,0,0,.01.02.01.03v.09h.15s.02,0,.03.01c0,0,.01.02.01.03s0,.02-.01.03-.02.01-.03.01h-.16v.25s0,.02.01.03c0,0,.02.01.03.01h.07s.03-.01.04-.03c0-.02.02-.03.04-.03.01,0,.02,0,.03.01,0,0,.01.02.01.03,0,.02-.01.05-.03.07s-.05.03-.08.03Z"/><path class="cls-7" d="M420.63,743.19v-.16l-.64-.91v3.71c0,.08-.03.16-.09.22s-.13.09-.22.09-.16-.03-.22-.09c-.06-.06-.09-.13-.09-.22v-4.55h.79l.75,1.1.78-1.1h.78v4.55c0,.08-.03.16-.09.22-.06.06-.14.09-.22.09s-.16-.03-.22-.09-.09-.13-.09-.22v-3.69l-.62.88v.17c0,.08-.03.15-.09.21-.06.06-.13.09-.22.09s-.16-.03-.22-.09c-.06-.06-.09-.13-.09-.21Z"/><path class="cls-7" d="M427.02,743.72v1.3c0,.28-.13.53-.39.76-.26.23-.53.35-.8.35h-.72c-.28,0-.55-.12-.8-.36-.26-.24-.38-.49-.38-.76v-1.3c0-.27.12-.52.37-.76.25-.24.52-.36.81-.36h.72c.28,0,.54.11.8.34.26.23.39.49.39.77ZM424.54,743.74v1.24c0,.11.04.2.12.27l.23.2c.05.04.12.07.21.07h.71c.1,0,.2-.04.29-.11l.19-.17c.08-.06.11-.14.11-.25v-1.24c0-.12-.04-.21-.11-.27l-.22-.17c-.07-.06-.16-.09-.26-.09h-.64c-.14,0-.25.03-.32.1l-.21.18c-.08.06-.11.15-.11.25Z"/><path class="cls-7" d="M428.44,745.83v-2.92c0-.08.03-.16.09-.22s.13-.09.22-.09.16.03.22.09c.06.06.09.14.09.22v.38l.5-.43c.21-.18.41-.26.61-.26h.45c.25,0,.47.09.65.27.18.18.27.4.27.65v.16c0,.09-.03.16-.09.22-.06.06-.13.09-.22.09s-.16-.03-.22-.09-.09-.13-.09-.22v-.17c0-.09-.03-.16-.09-.22s-.13-.09-.22-.09h-.4c-.08,0-.18.04-.29.14l-.87.76v1.71c0,.08-.03.16-.09.22-.06.06-.13.09-.22.09s-.16-.03-.22-.09c-.06-.06-.09-.13-.09-.22Z"/><path class="cls-7" d="M435.45,746.13h-1.87c-.09,0-.16-.03-.22-.09s-.09-.13-.09-.22.03-.15.09-.22c.06-.06.13-.09.22-.09h.63v-2.29h-.62c-.08,0-.16-.03-.22-.09-.06-.06-.09-.13-.09-.22s.03-.16.09-.22.13-.09.22-.09h.94c.08,0,.16.03.22.09.06.06.09.14.09.22v2.6h.61c.09,0,.16.03.22.09.06.06.09.13.09.22s-.03.16-.09.22c-.06.06-.13.09-.22.09ZM434.2,741.01h.32c.08,0,.16.03.22.09.06.06.09.13.09.22v.26c0,.08-.03.16-.09.22-.06.06-.13.09-.22.09h-.33c-.09,0-.16-.03-.22-.09s-.09-.13-.09-.21v-.27c0-.08.04-.16.1-.22.06-.06.13-.09.22-.09Z"/><path class="cls-7" d="M440.58,743.77v.74c0,.08-.03.16-.09.22-.06.06-.13.09-.22.09h-2.17v.18c0,.11.04.19.14.27l.18.15c.1.08.19.11.28.11h1.58c.08,0,.16.03.22.09.06.06.09.13.09.22s-.03.15-.09.22c-.06.06-.13.09-.21.09h-1.62c-.11,0-.22-.02-.34-.07s-.21-.09-.26-.14l-.27-.24c-.09-.07-.16-.16-.21-.29-.06-.12-.09-.23-.09-.34v-1.41c0-.08.03-.19.09-.33.06-.14.14-.24.24-.32l.26-.2c.17-.14.35-.21.56-.21h.86c.22,0,.42.09.61.27l.23.22c.17.15.25.37.25.67ZM438.11,743.72v.47h1.86v-.43c0-.11-.04-.2-.11-.26l-.18-.16c-.09-.08-.18-.11-.25-.11h-.77c-.09,0-.18.03-.26.1l-.18.15c-.08.06-.12.14-.12.24Z"/><path class="cls-7" d="M443.47,743.32l-.84.54v1.96c0,.08-.03.15-.09.22-.06.06-.13.09-.22.09s-.16-.03-.22-.09-.09-.13-.09-.22v-2.92c0-.08.03-.16.09-.22s.13-.09.22-.09.15.03.22.09c.06.06.09.14.09.22v.21l.56-.34c.19-.12.4-.18.64-.18h.29c.24,0,.46.09.63.26.18.17.27.39.28.64l.08,2.33c0,.08-.03.15-.09.22-.06.06-.13.09-.22.09-.08,0-.15-.03-.21-.08-.06-.05-.09-.13-.1-.22l-.09-2.29c0-.21-.12-.32-.34-.32h-.3c-.09,0-.19.04-.3.11Z"/><path class="cls-4" d="M429.49,747.51h.56c.07,0,.13.03.2.09.06.06.09.13.09.21,0,.03-.01.06-.03.08s-.05.03-.07.03c-.04,0-.06,0-.08-.03s-.03-.05-.04-.09c-.01-.05-.04-.07-.08-.07h-.54s-.04,0-.04.03c0,0,0,.02.02.04l.81,1.03s.06.1.06.16c0,.07-.02.12-.07.17s-.1.07-.16.07h-.58c-.08,0-.15-.03-.2-.09-.06-.06-.09-.12-.09-.19,0-.08.04-.12.11-.12.03,0,.05,0,.08.03s.03.05.03.07c0,.02,0,.04.02.06.02.02.04.02.06.02h.54s.04,0,.04-.03c0,0,0-.02-.02-.03l-.81-1.03s-.06-.1-.06-.16c0-.07.02-.13.07-.17.05-.05.11-.07.17-.07Z"/><path class="cls-4" d="M431.6,749.23h-.22c-.09,0-.17-.03-.23-.1-.06-.06-.1-.14-.1-.23v-.7h-.11s-.06-.01-.08-.03c-.02-.02-.03-.05-.03-.08s.01-.06.03-.08c.02-.02.05-.03.08-.03h.11v-.27s.01-.06.03-.08c.02-.02.05-.03.08-.03s.05.01.08.03c.02.02.03.05.03.08v.27h.44s.05.01.08.03c.02.02.03.05.03.08s-.01.06-.03.08c-.02.02-.05.03-.08.03h-.44v.7s.01.05.03.08c.02.02.05.03.08.03h.21c.06,0,.1-.03.12-.09.02-.06.06-.09.11-.09.03,0,.06,0,.08.03s.03.05.03.08c0,.07-.03.13-.09.2-.06.07-.14.1-.24.1Z"/><path class="cls-4" d="M432.76,748.44h.42s.06,0,.1.02v-.15s-.01-.06-.03-.08-.05-.03-.08-.03h-.41s-.05-.01-.08-.03-.03-.05-.03-.08,0-.06.03-.08c.02-.02.05-.03.08-.03h.41c.09,0,.17.03.23.09.06.06.1.14.1.23l.03.81s-.01.06-.03.08c-.02.02-.05.03-.08.03-.03,0-.06-.01-.08-.03-.02-.02-.03-.05-.03-.08l-.18.11h-.37c-.09,0-.17-.03-.23-.1s-.1-.14-.1-.23v-.13c0-.09.03-.17.1-.23.06-.06.14-.1.23-.1ZM433.3,748.86v-.09s-.02-.06-.04-.08-.05-.03-.08-.03h-.43s-.06,0-.08.03c-.02.02-.03.05-.03.08v.12s.01.05.03.08.05.03.08.03h.31l.24-.14Z"/><path class="cls-4" d="M434.04,749.12v-1.03s0-.06.03-.08c.02-.02.05-.03.08-.03s.06.01.08.03c.02.02.03.05.03.08v.14l.18-.15c.07-.06.14-.09.21-.09h.16c.09,0,.17.03.23.09.06.06.1.14.1.23v.06s-.01.06-.03.08c-.02.02-.05.03-.08.03s-.06-.01-.08-.03c-.02-.02-.03-.05-.03-.08v-.06s-.01-.06-.03-.08-.05-.03-.08-.03h-.14s-.06.02-.1.05l-.31.27v.61s-.01.06-.03.08c-.02.02-.05.03-.08.03s-.06-.01-.08-.03c-.02-.02-.03-.05-.03-.08Z"/><path class="cls-4" d="M459.92,736.68v-.57h.27s.06.01.08.03.03.05.03.08v.14s-.01.06-.03.08-.05.03-.08.03h-.19v.19s0,.02-.01.03c0,0-.02.01-.03.01s-.02,0-.03-.01c0,0-.01-.02-.01-.03ZM460,736.41h.19s.02,0,.03-.01c0,0,.01-.02.01-.03v-.14s0-.02-.01-.03c0,0-.02-.01-.03-.01h-.19v.22Z"/><path class="cls-4" d="M460.79,736.72h-.23s-.02,0-.03-.01c0,0-.01-.02-.01-.03,0,0,0-.02.01-.03,0,0,.02-.01.03-.01h.08v-.45h-.08s-.02,0-.03-.01c0,0-.01-.02-.01-.03s0-.02.01-.03c0,0,.02-.01.03-.01h.12s.02,0,.03.01c0,0,.01.02.01.03v.49h.08s.02,0,.03.01c0,0,.01.02.01.03,0,.01,0,.02-.01.03s-.02.01-.03.01Z"/><path class="cls-4" d="M461.16,736.44h.15s.02,0,.04,0v-.05s0-.02-.01-.03c0,0-.02-.01-.03-.01h-.15s-.02,0-.03-.01c0,0-.01-.02-.01-.03s0-.02.01-.03c0,0,.02-.01.03-.01h.15s.06.01.08.03c.02.02.03.05.04.08v.29s0,.02,0,.03c0,0-.02.01-.03.01-.01,0-.02,0-.03-.01,0,0-.01-.02-.01-.03l-.07.04h-.13s-.06-.01-.08-.03-.03-.05-.03-.08v-.04s.01-.06.03-.08c.02-.02.05-.03.08-.03ZM461.35,736.59v-.03s0-.02-.01-.03c0,0-.02-.01-.03-.01h-.15s-.02,0-.03.01c0,0-.01.02-.01.03v.04s0,.02.01.03c0,0,.02.01.03.01h.11l.08-.05Z"/><path class="cls-4" d="M461.79,736.37l-.1.07v.25s0,.02-.01.03c0,0-.02.01-.03.01-.01,0-.02,0-.03-.01,0,0-.01-.02-.01-.03v-.36s0-.02.01-.03.02-.01.03-.01c0,0,.02,0,.03.01,0,0,.01.02.01.03v.03l.07-.04s.05-.02.08-.02h.04s.06.01.08.03c.02.02.03.05.04.08v.29s0,.02,0,.03c0,0-.02.01-.03.01,0,0-.02,0-.03,0s-.01-.02-.01-.03v-.29s-.03-.04-.05-.04h-.04s-.02,0-.04.01Z"/><path class="cls-4" d="M462.56,736.42v.09s0,.02-.01.03c0,0-.02.01-.03.01h-.27v.02s0,.02.02.03l.02.02s.02.01.04.01h.2s.02,0,.03.01c0,0,.01.02.01.03s0,.02-.01.03c0,0-.02.01-.03.01h-.2s-.03,0-.04,0c-.01,0-.03-.01-.03-.02l-.03-.03s-.02-.02-.03-.04c0-.01-.01-.03-.01-.04v-.17s0-.02.01-.04c0-.02.02-.03.03-.04l.03-.03s.04-.03.07-.03h.11s.05.01.08.03l.03.03s.03.05.03.08ZM462.25,736.42v.06h.23v-.05s0-.03-.01-.03l-.02-.02s-.02-.01-.03-.01h-.1s-.02,0-.03.01l-.02.02s-.01.02-.01.03Z"/><path class="cls-4" d="M463.01,736.72h-.08s-.06-.01-.08-.03-.03-.05-.03-.08v-.25h-.04s-.02,0-.03-.01c0,0-.01-.02-.01-.03s0-.02.01-.03c0,0,.02-.01.03-.01h.04v-.09s0-.02.01-.03c0,0,.02-.01.03-.01,0,0,.02,0,.03.01,0,0,.01.02.01.03v.09h.15s.02,0,.03.01c0,0,.01.02.01.03s0,.02-.01.03c0,0-.02.01-.03.01h-.16v.25s0,.02.01.03.02.01.03.01h.07s.03-.01.04-.03.02-.03.04-.03c.01,0,.02,0,.03.01,0,0,.01.02.01.03,0,.02-.01.05-.03.07-.02.02-.05.03-.08.03Z"/><path class="cls-7" d="M1050.8,583.44h1.42s.09.02.12.05c.04.04.05.08.05.12s-.02.09-.05.13c-.03.04-.08.05-.12.05h-.53v2.07h.53s.09.02.12.05.05.08.05.12-.02.09-.05.12c-.03.03-.08.05-.12.05h-1.42s-.09-.02-.12-.05-.05-.08-.05-.12.02-.09.05-.12.08-.05.12-.05h.54v-2.07h-.54s-.09-.02-.12-.05-.05-.08-.05-.12c0-.05.02-.09.05-.13.03-.03.08-.05.12-.05Z"/><path class="cls-7" d="M1053.17,586.04v-1.67s.02-.09.05-.12.08-.05.12-.05c.09,0,.15.04.17.13.1-.09.21-.14.33-.14.14,0,.26.06.35.18.11-.12.23-.18.37-.18.11,0,.2.04.28.12.08.08.12.18.13.3l.05,1.43s-.02.09-.05.12c-.04.03-.08.05-.12.05s-.09-.02-.12-.05c-.04-.04-.05-.08-.05-.12l-.04-1.38c0-.08-.03-.11-.07-.11-.02,0-.05.01-.07.03l-.21.18v1.28s-.02.09-.05.12c-.03.03-.08.05-.12.05s-.09-.02-.12-.05c-.03-.03-.05-.08-.05-.12v-1.4c0-.06-.03-.09-.08-.09-.02,0-.05,0-.07.03l-.25.21v1.25s-.02.09-.05.12c-.03.03-.07.05-.12.05s-.09-.02-.13-.05c-.04-.04-.05-.08-.05-.12Z"/><path class="cls-7" d="M1056.16,586.02v.78c0,.05-.02.09-.05.13s-.08.05-.12.05-.09-.02-.13-.05c-.04-.04-.05-.08-.05-.13v-2.5s.02-.09.05-.12c.04-.03.08-.05.13-.05.05,0,.09.02.12.05.04.04.05.08.05.12v.11c.17-.19.34-.28.5-.28h.08c.12,0,.24.05.34.14l.29.25c.13.11.19.25.19.42v.55c0,.17-.07.32-.21.44l-.29.25c-.09.09-.21.13-.36.13h-.08c-.14,0-.25-.05-.35-.14l-.14-.14ZM1056.65,585.94h.09s.09-.02.14-.06l.27-.24s.07-.09.07-.15v-.57c0-.06-.03-.1-.08-.15l-.29-.25s-.07-.04-.11-.04h-.1s-.09.03-.15.1l-.26.26s-.07.1-.07.16v.45c0,.05.03.11.08.16l.25.25c.06.06.12.09.17.09Z"/><path class="cls-7" d="M1060.15,584.86v.42s-.02.09-.05.12c-.03.04-.08.05-.12.05h-1.24v.1c0,.06.03.11.08.15l.1.08c.06.04.11.07.16.07h.9s.09.02.12.05c.04.03.05.08.05.12s-.02.09-.05.12c-.04.03-.08.05-.12.05h-.93c-.06,0-.12-.01-.19-.04-.07-.03-.12-.05-.15-.08l-.16-.14s-.09-.09-.12-.16c-.03-.07-.05-.13-.05-.19v-.8s.02-.11.05-.19c.04-.08.08-.14.13-.18l.15-.12c.1-.08.2-.12.32-.12h.49c.12,0,.24.05.35.16l.13.12c.09.08.14.21.14.38ZM1058.74,584.84v.27h1.07v-.24c0-.07-.02-.12-.06-.15l-.1-.09c-.05-.04-.1-.06-.14-.06h-.44c-.05,0-.1.02-.15.06l-.1.09s-.07.08-.07.14Z"/><path class="cls-7" d="M1060.97,586.04v-1.67s.02-.09.05-.13c.03-.04.08-.05.12-.05s.09.02.12.05c.03.03.05.08.05.13v.22l.29-.25c.12-.1.23-.15.35-.15h.26c.14,0,.27.05.37.16.1.1.16.23.16.37v.09s-.02.09-.05.13c-.03.04-.08.05-.12.05s-.09-.02-.12-.05c-.03-.03-.05-.08-.05-.12v-.1s-.02-.09-.05-.12-.08-.05-.12-.05h-.23s-.1.03-.16.08l-.5.43v.98s-.02.09-.05.12c-.04.03-.08.05-.12.05s-.09-.02-.12-.05-.05-.08-.05-.12Z"/><path class="cls-7" d="M1064.97,586.22h-1.07s-.09-.02-.12-.05-.05-.08-.05-.12.02-.09.05-.12c.03-.04.08-.05.12-.05h.36v-1.31h-.36s-.09-.02-.12-.05c-.03-.03-.05-.08-.05-.12s.02-.09.05-.13c.03-.04.08-.05.12-.05h.54s.09.02.12.05c.03.04.05.08.05.13v1.49h.35s.09.02.13.05c.04.03.05.08.05.12s-.02.09-.05.12c-.04.03-.08.05-.12.05ZM1064.26,583.29h.18s.09.02.12.05.05.08.05.12v.15s-.02.09-.05.13c-.03.04-.08.05-.12.05h-.19s-.09-.02-.13-.05c-.03-.04-.05-.08-.05-.12v-.15s.02-.09.05-.12.08-.05.12-.05Z"/><path class="cls-7" d="M1067.91,584.84v.74c0,.16-.07.3-.22.44s-.3.2-.46.2h-.41c-.16,0-.31-.07-.46-.2s-.22-.28-.22-.43v-.74c0-.15.07-.3.21-.43s.3-.2.46-.2h.41c.16,0,.31.06.46.2s.22.28.22.44ZM1066.49,584.85v.71c0,.06.02.12.07.15l.13.11s.07.04.12.04h.41c.06,0,.11-.02.16-.06l.11-.09s.06-.08.06-.14v-.71c0-.07-.02-.12-.06-.15l-.12-.1s-.09-.05-.15-.05h-.36c-.08,0-.14.02-.18.06l-.12.1s-.07.08-.07.14Z"/><path class="cls-7" d="M1069.55,584.61l-.48.31v1.12s-.02.09-.05.12c-.04.03-.08.05-.12.05s-.09-.02-.12-.05c-.03-.04-.05-.08-.05-.12v-1.67s.02-.09.05-.13c.03-.04.08-.05.12-.05s.09.02.12.05c.03.04.05.08.05.13v.12l.32-.19c.11-.07.23-.1.36-.1h.16c.14,0,.26.05.36.15s.16.22.16.37l.05,1.33s-.02.09-.05.12c-.04.03-.08.05-.13.05-.05,0-.09-.02-.12-.05s-.05-.07-.05-.13l-.05-1.31c0-.12-.07-.18-.19-.18h-.17c-.05,0-.11.02-.17.06Z"/><path class="cls-4" d="M1058.92,581.9h.32s.08.02.11.05.05.07.05.12c0,.02,0,.03-.02.04-.01.01-.03.02-.04.02-.02,0-.04,0-.04-.01s-.02-.03-.02-.05c0-.03-.02-.04-.05-.04h-.31s-.02,0-.02.01c0,0,0,.01,0,.02l.46.59s.03.06.03.09c0,.04-.01.07-.04.1-.03.03-.06.04-.09.04h-.33s-.08-.02-.12-.05c-.03-.03-.05-.07-.05-.11,0-.05.02-.07.06-.07.02,0,.03,0,.04.02s.02.03.02.04c0,.01,0,.02.01.03,0,0,.02.01.03.01h.31s.02,0,.02-.02c0,0,0-.01,0-.02l-.46-.59s-.03-.06-.03-.09c0-.04.01-.07.04-.1s.06-.04.1-.04Z"/><path class="cls-4" d="M1060.12,582.88h-.12c-.05,0-.09-.02-.13-.05s-.06-.08-.06-.13v-.4h-.06s-.03,0-.04-.02c-.01-.01-.02-.03-.02-.04s0-.03.02-.04c.01-.01.03-.02.04-.02h.07v-.15s0-.03.02-.04c.01-.01.03-.02.04-.02s.03,0,.04.02c.01.01.02.03.02.04v.15h.25s.03,0,.04.02c.01.01.02.03.02.04s0,.03-.02.04c-.01.01-.03.02-.04.02h-.25v.4s0,.03.02.04c.01.01.03.02.04.02h.12s.05-.02.07-.05c.01-.04.03-.05.06-.05.02,0,.03,0,.04.02s.02.03.02.05c0,.04-.02.07-.05.11s-.08.06-.13.06Z"/><path class="cls-4" d="M1060.79,582.43h.24s.03,0,.06,0v-.09s0-.03-.02-.04c-.01-.01-.03-.02-.04-.02h-.24s-.03,0-.04-.02c-.01-.01-.02-.03-.02-.04,0-.02,0-.03.02-.04.01-.01.03-.02.04-.02h.24c.05,0,.09.02.13.05.04.04.06.08.06.13l.02.46s0,.03-.02.04c-.01.01-.03.02-.04.02-.02,0-.03,0-.04-.02-.01-.01-.02-.03-.02-.04l-.11.06h-.21c-.05,0-.1-.02-.13-.05-.04-.04-.05-.08-.05-.13v-.07c0-.05.02-.1.06-.13.04-.04.08-.06.13-.06ZM1061.1,582.67v-.05s-.01-.03-.02-.04-.03-.02-.04-.02h-.24s-.03,0-.04.02c-.01.01-.02.03-.02.04v.07s0,.03.02.04c.01.01.03.02.04.02h.17l.14-.08Z"/><path class="cls-4" d="M1061.51,582.82v-.59s0-.03.02-.04c.01-.01.03-.02.04-.02.02,0,.03,0,.04.02.01.01.02.03.02.04v.08l.1-.09s.08-.05.12-.05h.09c.05,0,.09.02.13.05.04.04.05.08.05.13v.03s0,.03-.02.05c-.01.01-.03.02-.04.02-.02,0-.03,0-.04-.02s-.02-.03-.02-.04v-.04s0-.03-.02-.04c-.01-.01-.03-.02-.04-.02h-.08s-.04,0-.06.03l-.18.15v.35s0,.03-.02.04c-.01.01-.03.02-.04.02-.02,0-.03,0-.04-.02-.01-.01-.02-.03-.02-.04Z"/><path class="cls-4" d="M1076.67,599.65v-.32h.16s.03,0,.05.02c.01.01.02.03.02.05v.08s0,.03-.02.05-.03.02-.05.02h-.11v.11s0,.01,0,.01c0,0,0,0-.02,0s-.01,0-.02,0c0,0,0,0,0-.01ZM1076.71,599.49h.11s.01,0,.02,0c0,0,0,0,0-.02v-.08s0-.01,0-.02c0,0,0,0-.02,0h-.11v.13Z"/><path class="cls-4" d="M1077.17,599.67h-.13s-.01,0-.02,0c0,0,0,0,0-.02s0-.01,0-.02c0,0,0,0,.02,0h.04v-.26h-.04s-.01,0-.02,0c0,0,0,0,0-.02s0-.01,0-.02c0,0,0,0,.02,0h.07s.01,0,.02,0c0,0,0,0,0,.02v.28h.04s.01,0,.02,0c0,0,0,0,0,.02s0,.01,0,.02c0,0,0,0-.02,0Z"/><path class="cls-4" d="M1077.38,599.51h.09s.01,0,.02,0v-.03s0-.01,0-.02c0,0,0,0-.02,0h-.08s-.01,0-.01,0c0,0,0,0,0-.02s0-.01,0-.02c0,0,0,0,.01,0h.08s.03,0,.05.02.02.03.02.05v.16s0,.01,0,.01c0,0,0,0-.01,0,0,0-.01,0-.02,0,0,0,0,0,0-.01l-.04.02h-.07s-.03,0-.05-.02-.02-.03-.02-.05v-.03s0-.03.02-.05.03-.02.05-.02ZM1077.49,599.6v-.02s0-.01,0-.02c0,0,0,0-.02,0h-.09s-.01,0-.02,0c0,0,0,0,0,.02v.02s0,.01,0,.01c0,0,0,0,.02,0h.06l.05-.03Z"/><path class="cls-4" d="M1077.74,599.47l-.06.04v.14s0,.01,0,.01c0,0,0,0-.01,0s-.01,0-.02,0c0,0,0,0,0-.01v-.21s0-.01,0-.02c0,0,0,0,.02,0,0,0,.01,0,.01,0,0,0,0,0,0,.02h0s.04,0,.04,0c.01,0,.03-.01.04-.01h.02s.03,0,.04.02.02.03.02.05v.17s0,.01,0,.01c0,0,0,0-.02,0s-.01,0-.02,0c0,0,0,0,0-.02v-.16s-.01-.02-.03-.02h-.02s-.01,0-.02,0Z"/><path class="cls-4" d="M1078.18,599.5v.05s0,.01,0,.02c0,0,0,0-.02,0h-.15s0,.03,0,.03h.01s.01.02.02.02h.11s.01,0,.02,0c0,0,0,0,0,.02,0,0,0,.01,0,.01,0,0,0,0-.02,0h-.12s-.02,0-.02,0c0,0-.01,0-.02,0l-.02-.02s-.01-.01-.02-.02,0-.02,0-.02v-.1s0-.01,0-.02c0,0,.01-.02.02-.02h.02s.03-.03.04-.03h.06s.03,0,.04.02l.02.02s.02.03.02.05ZM1078,599.5v.03h.13v-.03s0-.01,0-.02h-.01s-.01-.02-.02-.02h-.06s-.01,0-.02,0h-.01s0,.02,0,.03Z"/><path class="cls-4" d="M1078.43,599.67h-.04s-.03,0-.05-.02-.02-.03-.02-.05v-.14h-.02s-.01,0-.02,0c0,0,0,0,0-.02s0-.01,0-.02c0,0,0,0,.02,0h.02v-.05s0-.01,0-.02c0,0,0,0,.02,0s.01,0,.02,0c0,0,0,0,0,.02v.05h.09s.01,0,.01,0c0,0,0,0,0,.02s0,.01,0,.02c0,0,0,0-.01,0h-.09v.14s0,.01,0,.02c0,0,0,0,.02,0h.04s.02,0,.02-.02.01-.02.02-.02c0,0,.01,0,.02,0s0,0,0,.02c0,.01,0,.03-.02.04-.01.01-.03.02-.05.02Z"/><path class="cls-7" d="M690.97,332l1.52-5.16c.06-.19.19-.28.38-.28s.31.08.35.24l1.5,5.24s.02.08.02.11c0,.1-.04.19-.11.27-.07.07-.15.11-.25.11-.2,0-.32-.09-.38-.27l-.3-1.02h-1.73l-.33,1.1s-.05.09-.11.14c-.07.04-.14.06-.22.06-.11,0-.2-.04-.28-.11s-.11-.17-.11-.27c0-.04,0-.09.02-.14ZM692.86,328.31l-.65,2.16h1.28l-.63-2.16Z"/><path class="cls-7" d="M697.55,328.2h1.73c.27,0,.51.08.71.24.21.16.31.32.31.47,0,.11-.04.2-.11.26s-.16.1-.25.1c-.12,0-.23-.05-.33-.16-.1-.11-.2-.16-.31-.16h-1.71c-.17,0-.25.07-.25.21,0,.1.06.17.17.22l2,.89c.2.09.37.23.5.43s.2.42.2.66c0,.32-.11.6-.34.82-.23.22-.49.34-.78.34h-1.53c-.26,0-.51-.08-.73-.24s-.34-.31-.34-.46c0-.1.04-.19.11-.26.07-.08.17-.11.29-.11.1,0,.2.05.31.16s.27.16.47.16h1.41c.11,0,.2-.04.28-.13.07-.09.11-.18.11-.29,0-.17-.08-.29-.25-.37l-2.02-.91c-.19-.09-.34-.21-.45-.38s-.16-.33-.16-.5c0-.27.09-.5.28-.7.19-.2.42-.3.69-.3Z"/><path class="cls-7" d="M704.7,332.53h-.75c-.31,0-.58-.11-.8-.33-.22-.22-.34-.49-.34-.8v-2.45h-.39c-.1,0-.19-.04-.27-.11s-.11-.16-.11-.27.04-.19.11-.27c.07-.07.16-.11.27-.11h.4v-.92c0-.1.04-.19.11-.27s.16-.11.27-.11c.1,0,.19.04.26.11.08.07.12.16.12.26v.92h1.52c.1,0,.19.04.26.11s.11.16.11.26-.04.19-.11.27c-.08.07-.16.11-.26.11h-1.53v2.45c0,.1.04.19.12.26s.17.11.27.11h.74c.2,0,.33-.11.4-.33.07-.22.19-.33.38-.33.11,0,.2.04.27.11.07.07.11.17.11.28,0,.23-.11.45-.32.68s-.49.34-.82.34Z"/><path class="cls-7" d="M707.6,332.15v-3.58c0-.1.04-.19.11-.27.07-.08.16-.11.27-.11s.19.04.27.11.11.17.11.27v.47l.62-.53c.25-.22.5-.32.75-.32h.55c.31,0,.58.11.8.33.22.22.33.49.33.8v.2c0,.11-.04.2-.11.27s-.16.11-.27.11-.19-.04-.27-.11c-.07-.07-.11-.16-.11-.27v-.21c0-.1-.04-.19-.11-.27-.07-.07-.16-.11-.27-.11h-.49c-.1,0-.22.06-.35.17l-1.07.93v2.1c0,.1-.04.19-.11.27-.07.07-.16.11-.26.11s-.19-.04-.27-.11-.11-.16-.11-.27Z"/><path class="cls-7" d="M714.95,331.76l1.27-.81v-2.38c0-.1.04-.19.11-.27.07-.08.16-.11.27-.11s.19.04.27.11c.07.08.11.17.11.27v3.58c0,.1-.04.19-.11.26-.08.07-.16.11-.26.11s-.19-.04-.27-.11c-.07-.07-.11-.16-.11-.26v-.3l-.65.43c-.26.17-.52.25-.78.25h-.35c-.31,0-.57-.11-.79-.32s-.34-.48-.35-.79l-.11-2.84c0-.1.03-.19.11-.26s.17-.11.27-.11.19.04.26.11c.07.07.11.16.11.26l.1,2.79c0,.27.16.4.46.4h.46Z"/><path class="cls-7" d="M718.61,332.15v-3.58c0-.1.04-.19.11-.27.07-.07.16-.11.27-.11.19,0,.32.1.37.29.21-.2.44-.3.7-.3.3,0,.55.13.74.39.24-.26.5-.39.79-.39.23,0,.44.08.61.25s.26.38.28.64l.11,3.08c0,.1-.04.19-.11.26-.07.07-.16.11-.26.11s-.19-.04-.27-.11c-.08-.07-.11-.16-.12-.26l-.09-2.96c0-.16-.06-.24-.15-.24-.05,0-.1.02-.16.07l-.45.38v2.76c0,.1-.04.19-.11.26-.07.07-.16.11-.27.11s-.19-.04-.26-.11c-.08-.07-.11-.16-.11-.27v-3c0-.13-.05-.19-.17-.19-.05,0-.1.02-.15.06l-.54.46v2.68c0,.1-.04.19-.11.26-.07.07-.16.11-.26.11s-.2-.04-.27-.11-.11-.16-.11-.26Z"/><path class="cls-4" d="M703.15,334.21h.69c.08,0,.16.04.24.11.08.07.11.16.11.26,0,.04-.01.07-.04.1-.03.03-.06.04-.09.04-.05,0-.08-.01-.09-.03s-.03-.06-.05-.11c-.02-.06-.05-.08-.1-.08h-.66s-.05.01-.05.03c0,.01,0,.03.02.04l.99,1.26c.05.06.07.13.07.2,0,.08-.03.15-.09.21s-.12.09-.19.09h-.72c-.09,0-.18-.04-.25-.11-.07-.07-.1-.15-.1-.24,0-.1.05-.15.14-.15.04,0,.07.01.09.04s.04.06.04.09c0,.03,0,.05.03.07.02.02.04.03.07.03h.66s.04-.01.04-.03c0-.01,0-.02-.02-.04l-.99-1.26c-.05-.06-.07-.13-.07-.2,0-.08.03-.15.09-.21.06-.06.13-.09.21-.09Z"/><path class="cls-4" d="M705.75,336.31h-.27c-.11,0-.2-.04-.28-.12s-.12-.17-.12-.28v-.86h-.14s-.07-.01-.09-.04c-.03-.03-.04-.06-.04-.1s.01-.07.04-.09c.03-.03.06-.04.09-.04h.14v-.33s.01-.07.04-.09c.03-.03.06-.04.09-.04.04,0,.07.01.09.04.03.03.04.06.04.09v.33h.54s.07.01.09.04.04.06.04.09-.01.07-.04.09-.06.04-.09.04h-.54v.86s.01.07.04.09c.03.03.06.04.1.04h.26c.07,0,.12-.04.14-.11s.07-.12.13-.12c.04,0,.07.01.1.04s.04.06.04.1c0,.08-.04.16-.11.24s-.17.12-.29.12Z"/><path class="cls-4" d="M707.17,335.35h.52s.07,0,.12.02v-.19s-.02-.07-.04-.09c-.03-.03-.06-.04-.09-.04h-.51s-.07-.01-.09-.04-.04-.06-.04-.09.01-.07.04-.09c.03-.03.06-.04.09-.04h.51c.11,0,.2.04.28.12.08.08.12.17.12.28l.03,1s-.01.07-.04.09-.06.04-.09.04c-.04,0-.07-.01-.1-.04s-.04-.06-.04-.09l-.23.13h-.45c-.11,0-.21-.04-.29-.12-.08-.08-.12-.17-.12-.29v-.16c0-.11.04-.21.12-.28.08-.08.17-.12.29-.12ZM707.83,335.87v-.11s-.02-.07-.05-.09-.06-.04-.09-.04h-.52s-.07.01-.09.04c-.03.03-.04.06-.04.09v.15s.01.07.04.09.06.04.09.04h.38l.29-.17Z"/><path class="cls-4" d="M708.73,336.18v-1.26s.01-.07.04-.1c.03-.03.06-.04.09-.04s.07.01.09.04c.03.03.04.06.04.1v.17l.22-.19c.09-.08.18-.11.26-.11h.2c.11,0,.2.04.28.12s.12.17.12.28v.07s-.01.07-.04.1c-.03.03-.06.04-.09.04s-.07-.01-.09-.04c-.03-.03-.04-.06-.04-.09v-.07s-.01-.07-.04-.09c-.03-.03-.06-.04-.09-.04h-.17s-.08.02-.12.06l-.38.33v.74s-.01.07-.04.09-.06.04-.09.04-.07-.01-.09-.04c-.03-.03-.04-.06-.04-.09Z"/><path class="cls-4" d="M669.03,307.19v-.7h.33s.07.01.1.04c.03.03.04.06.04.1v.18s-.01.07-.04.1c-.03.03-.06.04-.1.04h-.24v.24s0,.02-.01.03-.02.01-.03.01c-.01,0-.03,0-.03-.01,0,0-.01-.02-.01-.03ZM669.12,306.86h.24s.02,0,.03-.01c0,0,.01-.02.01-.03v-.18s0-.02-.01-.03c0,0-.02-.01-.03-.01h-.24v.27Z"/><path class="cls-4" d="M670.1,307.23h-.28s-.02,0-.03-.01c0,0-.01-.02-.01-.03s0-.02.01-.03.02-.01.03-.01h.09v-.55h-.09s-.02,0-.03-.01c0,0-.01-.02-.01-.03s0-.02.01-.03c0,0,.02-.01.03-.01h.14s.02,0,.03.01c0,0,.01.02.01.03v.6h.09s.02,0,.03.01c0,0,.01.02.01.03s0,.02-.01.03c0,0-.02.01-.03.01Z"/><path class="cls-4" d="M670.55,306.9h.18s.02,0,.04,0v-.07s0-.02-.02-.03c0,0-.02-.01-.03-.01h-.18s-.02,0-.03-.01c0,0-.01-.02-.01-.03s0-.02.01-.03c0,0,.02-.01.03-.01h.18s.07.01.1.04.04.06.04.1v.35s0,.02,0,.03c0,0-.02.01-.03.01-.01,0-.03,0-.03-.01,0,0-.01-.02-.01-.03l-.08.05h-.16s-.07-.01-.1-.04c-.03-.03-.04-.06-.04-.1v-.05s.01-.07.04-.1c.03-.03.06-.04.1-.04ZM670.79,307.08v-.04s0-.02-.02-.03c0,0-.02-.01-.03-.01h-.19s-.02,0-.03.01c0,0-.01.02-.01.03v.05s0,.02.01.03.02.01.03.01h.13l.1-.06Z"/><path class="cls-4" d="M671.33,306.8l-.13.08v.3s0,.02-.01.03c0,0-.02.01-.03.01s-.02,0-.03-.01c0,0-.01-.02-.01-.03v-.45s0-.02.01-.03c0,0,.02-.01.03-.01.01,0,.02,0,.03.01,0,0,.01.02.01.03v.03l.09-.05s.06-.03.1-.03h.04s.07.01.1.04c.03.03.04.06.04.1v.36s0,.02,0,.03c0,0-.02.01-.03.01s-.02,0-.03-.01c0,0-.01-.02-.01-.03v-.35s-.03-.05-.07-.05h-.05s-.03,0-.05.02Z"/><path class="cls-4" d="M672.27,306.87v.11s0,.02-.01.03c0,0-.02.01-.03.01h-.33v.03s0,.03.02.04l.03.02s.03.02.04.02h.24s.02,0,.03.01c0,0,.01.02.01.03s0,.02-.01.03c0,0-.02.01-.03.01h-.25s-.03,0-.05-.01c-.02,0-.03-.01-.04-.02l-.04-.04s-.02-.02-.03-.04c0-.02-.01-.04-.01-.05v-.22s0-.03.01-.05.02-.04.04-.05l.04-.03s.05-.03.09-.03h.13s.06.01.09.04l.04.03s.04.06.04.1ZM671.89,306.86v.07h.29v-.07s0-.03-.02-.04l-.03-.02s-.03-.02-.04-.02h-.12s-.03,0-.04.02l-.03.02s-.02.02-.02.04Z"/><path class="cls-4" d="M672.82,307.23h-.09s-.07-.01-.1-.04c-.03-.03-.04-.06-.04-.1v-.3h-.05s-.02,0-.03-.01c0,0-.01-.02-.01-.03,0-.01,0-.02.01-.03,0,0,.02-.01.03-.01h.05v-.12s0-.02.01-.03.02-.01.03-.01.02,0,.03.01c0,0,.01.02.01.03v.12h.19s.02,0,.03.01c0,0,.01.02.01.03s0,.02-.01.03c0,0-.02.01-.03.01h-.19v.3s0,.02.01.03c0,0,.02.01.03.01h.09s.04-.01.05-.04c0-.03.02-.04.05-.04.01,0,.03,0,.03.01,0,0,.01.02.01.03,0,.03-.01.06-.04.08-.03.03-.06.04-.1.04Z"/></g></g><g id="Layer_68"><rect class="cls-1" y="160.36" width="1200.07" height="749.08"/></g></g><g id="Layer_73"><path class="cls-7" d="M833.81,503.66c-3.15,0-5.71,2.56-5.71,5.71s2.56,5.71,5.71,5.71,5.71-2.56,5.71-5.71-2.56-5.71-5.71-5.71Z"/><path class="cls-5" d="M828.56,507.13c-.29.69-.46,1.44-.46,2.24,0,3.15,2.56,5.71,5.71,5.71.8,0,1.56-.17,2.25-.46-4.54-.48-7.16-2.86-7.5-7.48Z"/><path class="cls-3" d="M833.81,503.66c-3.15,0-5.71,2.56-5.71,5.71s2.56,5.71,5.71,5.71,5.71-2.56,5.71-5.71-2.56-5.71-5.71-5.71Z"/><path class="cls-7" d="M431.9,727.73c-3.15,0-5.71,2.56-5.71,5.71s2.56,5.71,5.71,5.71,5.71-2.56,5.71-5.71-2.56-5.71-5.71-5.71Z"/><path class="cls-5" d="M426.64,731.21c-.29.69-.46,1.44-.46,2.24,0,3.15,2.56,5.71,5.71,5.71.8,0,1.56-.17,2.25-.46-4.54-.48-7.16-2.86-7.5-7.48Z"/><path class="cls-3" d="M431.9,727.73c-3.15,0-5.71,2.56-5.71,5.71s2.56,5.71,5.71,5.71,5.71-2.56,5.71-5.71-2.56-5.71-5.71-5.71Z"/><path class="cls-7" d="M1060.29,587.61c-1.8,0-3.26,1.46-3.26,3.26s1.46,3.26,3.26,3.26,3.26-1.46,3.26-3.26-1.46-3.26-3.26-3.26Z"/><path class="cls-5" d="M1057.29,589.59c-.17.39-.26.82-.26,1.28,0,1.8,1.46,3.26,3.26,3.26.46,0,.89-.09,1.29-.26-2.59-.27-4.09-1.63-4.29-4.28Z"/><path class="cls-3" d="M1060.29,587.61c-1.8,0-3.26,1.46-3.26,3.26s1.46,3.26,3.26,3.26,3.26-1.46,3.26-3.26-1.46-3.26-3.26-3.26Z"/><path class="cls-7" d="M706.11,309.93c-3.87,0-7.01,3.14-7.01,7.01s3.14,7.01,7.01,7.01,7.01-3.14,7.01-7.01-3.14-7.01-7.01-7.01Z"/><path class="cls-5" d="M699.66,314.2c-.36.84-.56,1.77-.56,2.74,0,3.87,3.14,7.01,7.01,7.01.98,0,1.91-.2,2.76-.57-5.57-.58-8.79-3.51-9.21-9.19Z"/><path class="cls-3" d="M706.11,309.93c-3.87,0-7.01,3.14-7.01,7.01s3.14,7.01,7.01,7.01,7.01-3.14,7.01-7.01-3.14-7.01-7.01-7.01Z"/></g><g id="Layer_86"><circle class="cls-9" cx="670.9" cy="304.31" r="1.17"/><circle class="cls-9" cx="860.41" cy="494.81" r=".95"/><circle class="cls-9" cx="1077.54" cy="598.31" r=".54"/><circle class="cls-9" cx="461.45" cy="734.34" r=".94"/></g><g id="Layer_72"><circle class="cls-10" cx="860.43" cy="494.81" r=".95"/><circle class="cls-10" cx="461.46" cy="734.34" r=".95"/><circle class="cls-10" cx="1077.55" cy="598.31" r=".54"/><circle class="cls-10" cx="670.92" cy="304.31" r="1.16"/></g><g id="Layer_74"><path class="cls-7" d="M857.18,492.83v-1.44h.69c.08,0,.15.03.21.09s.09.13.09.21v.36c0,.08-.03.15-.08.21-.06.06-.13.09-.21.09h-.49v.49s0,.05-.03.07c-.02.02-.04.03-.07.03s-.05,0-.07-.03c-.02-.02-.03-.04-.03-.07ZM857.38,492.14h.49s.05,0,.07-.03c.02-.02.03-.04.03-.07v-.36s0-.05-.03-.07c-.02-.02-.04-.03-.07-.03h-.49v.56Z"/><path class="cls-7" d="M858.9,492.22h.38s.05,0,.09.01v-.14s-.01-.05-.03-.07c-.02-.02-.04-.03-.07-.03h-.37s-.05,0-.07-.03c-.02-.02-.03-.04-.03-.07s0-.05.03-.07c.02-.02.04-.03.07-.03h.37c.08,0,.15.03.21.08s.09.12.09.21l.02.73s0,.05-.03.07c-.02.02-.04.03-.07.03-.03,0-.05,0-.07-.03-.02-.02-.03-.04-.03-.07l-.16.1h-.33c-.08,0-.15-.03-.21-.09-.06-.06-.09-.13-.09-.21v-.11c0-.08.03-.15.09-.21.06-.06.13-.09.21-.09ZM859.38,492.6v-.08s-.02-.05-.03-.07c-.02-.02-.04-.03-.07-.03h-.38s-.05,0-.07.03c-.02.02-.03.04-.03.07v.11s0,.05.03.07c.02.02.04.03.07.03h.27l.21-.12Z"/><path class="cls-7" d="M860.82,492.92h-.59s-.05,0-.07-.03c-.02-.02-.03-.04-.03-.07s0-.05.03-.07c.02-.02.04-.03.07-.03h.2v-.72h-.2s-.05,0-.07-.03c-.02-.02-.03-.04-.03-.07s0-.05.03-.07.04-.03.07-.03h.3s.05,0,.07.03c.02.02.03.04.03.07v.82h.19s.05,0,.07.03c.02.02.03.04.03.07s0,.05-.03.07c-.02.02-.04.03-.07.03ZM860.42,491.3h.1s.05,0,.07.03c.02.02.03.04.03.07v.08s0,.05-.03.07c-.02.02-.04.03-.07.03h-.1s-.05-.01-.07-.03-.03-.04-.03-.07v-.09s.01-.05.03-.07c.02-.02.04-.03.07-.03Z"/><path class="cls-7" d="M861.66,491.48v.46l.09-.07c.05-.04.11-.07.17-.07h.18c.07,0,.12.02.17.07l.09.08s.05.05.06.1c.02.04.02.08.02.12v.39s0,.07-.02.11c-.01.04-.03.07-.05.09l-.08.08s-.05.04-.09.06-.07.02-.1.02h-.17c-.08,0-.17-.04-.26-.14v.04s0,.05-.03.07-.04.03-.07.03-.05,0-.07-.03c-.02-.02-.03-.04-.03-.07v-1.34s0-.05.03-.07c.02-.02.04-.03.07-.03s.05,0,.07.03c.02.02.03.04.03.07ZM862.08,492h-.13s-.06,0-.07.02l-.17.15s-.03.05-.03.09v.22s.01.06.04.08l.16.13s.05.03.07.03h.16s.04,0,.06-.02l.08-.07s.03-.04.03-.07v-.41s-.01-.06-.03-.07l-.07-.06s-.05-.03-.07-.03Z"/><path class="cls-7" d="M863.35,492.73l.33-.21v-.61s0-.05.03-.07.04-.03.07-.03.05,0,.07.03c.02.02.03.04.03.07v.92s0,.05-.03.07-.04.03-.07.03-.05,0-.07-.03c-.02-.02-.03-.04-.03-.07v-.08l-.17.11c-.07.04-.13.06-.2.06h-.09c-.08,0-.15-.03-.2-.08-.06-.06-.09-.12-.09-.2l-.03-.73s0-.05.03-.07c.02-.02.04-.03.07-.03s.05,0,.07.03c.02.02.03.04.03.07l.03.72c0,.07.04.1.12.1h.12Z"/><path class="cls-7" d="M458.3,730.92h.38s.1.02.15.05c.05.03.08.07.1.11l.19.39c.04.07.05.14.05.22,0,.07-.02.14-.06.22l-.19.38s-.06.09-.11.12c-.05.03-.1.04-.15.04h-.37s-.05,0-.07-.03c-.02-.02-.03-.04-.03-.07s0-.05.03-.07.04-.03.07-.03h.1v-1.14h-.1s-.05,0-.07-.03c-.02-.02-.03-.04-.03-.07s0-.05.03-.07c.02-.02.04-.03.07-.03ZM458.59,731.11v1.14h.07s.08-.02.1-.06l.19-.38s.04-.09.04-.13c0-.04,0-.08-.03-.12l-.2-.39s-.05-.06-.1-.06h-.06Z"/><path class="cls-7" d="M459.92,731.75h.38s.05,0,.09.01v-.14s-.01-.05-.03-.07-.04-.03-.07-.03h-.37s-.05,0-.07-.03-.03-.04-.03-.07,0-.05.03-.07c.02-.02.04-.03.07-.03h.37c.08,0,.15.03.21.08.06.06.09.12.09.21l.02.73s0,.05-.03.07-.04.03-.07.03c-.03,0-.05,0-.07-.03-.02-.02-.03-.04-.03-.07l-.16.1h-.33c-.08,0-.15-.03-.21-.09-.06-.06-.09-.13-.09-.21v-.11c0-.08.03-.15.09-.21.06-.06.13-.09.21-.09ZM460.41,732.13v-.08s-.02-.05-.03-.07-.04-.03-.07-.03h-.38s-.05,0-.07.03c-.02.02-.03.04-.03.07v.11s0,.05.03.07c.02.02.04.03.07.03h.27l.21-.12Z"/><path class="cls-7" d="M461.52,731.56l-.27.17v.62s0,.05-.03.07c-.02.02-.04.03-.07.03s-.05,0-.07-.03-.03-.04-.03-.07v-.92s0-.05.03-.07c.02-.02.04-.03.07-.03s.05,0,.07.03c.02.02.03.04.03.07v.06l.18-.11c.06-.04.13-.06.2-.06h.09c.08,0,.14.03.2.08.06.05.09.12.09.2l.03.74s0,.05-.03.07c-.02.02-.04.03-.07.03s-.05,0-.07-.03-.03-.04-.03-.07l-.03-.72c0-.07-.04-.1-.11-.1h-.09s-.06.01-.09.03Z"/><path class="cls-7" d="M463.17,732.45h-.19c-.08,0-.15-.03-.21-.09-.06-.06-.09-.12-.09-.21v-.63h-.1s-.05,0-.07-.03c-.02-.02-.03-.04-.03-.07,0-.03,0-.05.03-.07.02-.02.04-.03.07-.03h.1v-.24s0-.05.03-.07c.02-.02.04-.03.07-.03.03,0,.05,0,.07.03.02.02.03.04.03.07v.24h.39s.05,0,.07.03c.02.02.03.04.03.07s0,.05-.03.07c-.02.02-.04.03-.07.03h-.39v.63s0,.05.03.07c.02.02.04.03.07.03h.19c.05,0,.09-.03.1-.08.02-.06.05-.08.1-.08.03,0,.05,0,.07.03.02.02.03.04.03.07,0,.06-.03.12-.08.17-.05.06-.12.09-.21.09Z"/><path class="cls-7" d="M464.38,732.25l.33-.21v-.61s0-.05.03-.07.04-.03.07-.03.05,0,.07.03c.02.02.03.04.03.07v.92s0,.05-.03.07c-.02.02-.04.03-.07.03s-.05,0-.07-.03c-.02-.02-.03-.04-.03-.07v-.08l-.17.11c-.07.04-.13.06-.2.06h-.09c-.08,0-.15-.03-.2-.08-.06-.06-.09-.12-.09-.2l-.03-.73s0-.05.03-.07.04-.03.07-.03.05,0,.07.03c.02.02.03.04.03.07l.03.72c0,.07.04.1.12.1h.12Z"/><path class="cls-7" d="M1076.19,596.47h-.39v.27h.17s.03,0,.04.02c.01.01.02.02.02.04,0,.02,0,.03-.02.04-.01.01-.02.02-.04.02h-.17v.27h.39s.03,0,.04.02c.01.01.02.02.02.04,0,.02,0,.03-.02.04-.01.01-.02.02-.04.02h-.5v-.88h.5s.03,0,.04.02c.01.01.02.03.02.04,0,.02,0,.03-.02.04-.01.01-.02.02-.04.02Z"/><path class="cls-7" d="M1076.77,597.12l.19-.12v-.35s0-.03.02-.04c.01-.01.02-.02.04-.02s.03,0,.04.02c.01.01.02.02.02.04v.53s0,.03-.02.04-.02.02-.04.02c-.01,0-.03,0-.04-.02-.01-.01-.02-.02-.02-.04v-.04l-.1.06s-.08.04-.11.04h-.05s-.08-.02-.12-.05c-.03-.03-.05-.07-.05-.12l-.02-.42s0-.03.01-.04c.01-.01.03-.02.04-.02.02,0,.03,0,.04.02s.02.02.02.04l.02.41s.02.06.07.06h.07Z"/><path class="cls-7" d="M1077.32,597.18v-.53s0-.03.02-.04c.01-.01.02-.02.04-.02.01,0,.03,0,.04.02.01.01.02.02.02.04v.07l.09-.08s.07-.05.11-.05h.08s.08.02.12.05c.03.03.05.07.05.12v.03s0,.03-.02.04-.02.02-.04.02c-.02,0-.03,0-.04-.02s-.02-.02-.02-.04v-.03s0-.03-.02-.04-.02-.02-.04-.02h-.07s-.03,0-.05.02l-.16.14v.31s0,.03-.02.04c-.01.01-.02.02-.04.02-.02,0-.03,0-.04-.02s-.02-.02-.02-.04Z"/><path class="cls-7" d="M1078.4,597.12l.19-.12v-.35s0-.03.02-.04c.01-.01.02-.02.04-.02s.03,0,.04.02c.01.01.02.02.02.04v.53s0,.03-.02.04-.02.02-.04.02c-.01,0-.03,0-.04-.02-.01-.01-.02-.02-.02-.04v-.04l-.1.06s-.08.04-.11.04h-.05s-.08-.02-.12-.05c-.03-.03-.05-.07-.05-.12l-.02-.42s0-.03.01-.04c.01-.01.03-.02.04-.02.02,0,.03,0,.04.02s.02.02.02.04l.02.41s.02.06.07.06h.07Z"/><path class="cls-7" d="M1079.11,596.6h.25s.07.01.1.04.05.05.05.07c0,.02,0,.03-.02.04-.01,0-.02.01-.04.01-.02,0-.03,0-.05-.02s-.03-.02-.05-.02h-.25s-.04,0-.04.03c0,.01,0,.03.02.03l.29.13s.05.03.07.06.03.06.03.1c0,.05-.02.09-.05.12-.03.03-.07.05-.11.05h-.22s-.08-.01-.11-.04-.05-.05-.05-.07c0-.01,0-.03.02-.04.01-.01.02-.02.04-.02.01,0,.03,0,.04.02.02.02.04.02.07.02h.21s.03,0,.04-.02.02-.03.02-.04c0-.03-.01-.04-.04-.05l-.3-.13s-.05-.03-.07-.06c-.02-.02-.02-.05-.02-.07,0-.04.01-.07.04-.1.03-.03.06-.04.1-.04Z"/><path class="cls-7" d="M666.42,301.76h.43s.06.01.09.04c.02.02.04.05.04.08s-.01.06-.04.08c-.02.02-.05.03-.09.03h-.45c-.06,0-.12-.02-.18-.05-.06-.04-.1-.08-.13-.12l-.27-.53c-.04-.08-.06-.15-.06-.24,0-.09.02-.17.05-.23l.28-.53s.07-.09.12-.13c.06-.04.11-.06.16-.06h.47s.06.01.08.04c.02.02.04.05.04.08s-.01.06-.04.09c-.02.02-.05.04-.08.04h-.45s-.07.02-.09.07l-.26.49s-.03.08-.03.14c0,.06.01.1.03.15l.25.48c.02.05.06.08.12.07Z"/><path class="cls-7" d="M667.88,301.14h.47s.06,0,.11.02v-.17s-.01-.06-.04-.08c-.02-.02-.05-.03-.08-.03h-.45s-.06-.01-.08-.04c-.02-.02-.04-.05-.04-.08s.01-.06.04-.08c.02-.02.05-.03.08-.03h.45c.1,0,.18.03.25.1.07.07.11.15.11.25l.03.89s-.01.06-.04.08c-.02.02-.05.03-.08.03s-.06-.01-.09-.03-.04-.05-.04-.08l-.2.12h-.4c-.1,0-.19-.04-.26-.1s-.1-.15-.1-.25v-.14c0-.1.04-.18.11-.25.07-.07.16-.11.25-.11ZM668.47,301.6v-.1s-.02-.06-.04-.08c-.02-.02-.05-.03-.08-.03h-.47s-.06.01-.08.03c-.02.02-.04.05-.04.08v.13s.01.06.04.08c.02.02.05.04.08.04h.34l.26-.15Z"/><path class="cls-7" d="M669.61,300.63h.55c.08,0,.16.02.23.08.06.05.1.1.1.15,0,.03-.01.06-.04.08-.02.02-.05.03-.08.03-.04,0-.07-.02-.1-.05-.03-.03-.06-.05-.1-.05h-.54c-.05,0-.08.02-.08.07,0,.03.02.05.05.07l.63.28c.06.03.12.07.16.14.04.06.06.13.06.21,0,.1-.04.19-.11.26s-.15.11-.25.11h-.48c-.08,0-.16-.02-.23-.08-.07-.05-.11-.1-.11-.15,0-.03.01-.06.04-.08.02-.02.05-.04.09-.04.03,0,.06.02.1.05.03.03.08.05.15.05h.44s.06-.01.09-.04.04-.06.04-.09c0-.05-.03-.09-.08-.12l-.64-.29c-.06-.03-.11-.07-.14-.12-.03-.05-.05-.1-.05-.16,0-.08.03-.16.09-.22.06-.06.13-.09.22-.09Z"/><path class="cls-7" d="M671.86,302h-.24c-.1,0-.18-.04-.25-.1s-.11-.15-.11-.25v-.77h-.12s-.06-.01-.08-.03c-.02-.02-.04-.05-.04-.08s.01-.06.04-.08c.02-.02.05-.03.08-.03h.12v-.29s.01-.06.04-.08c.02-.02.05-.03.08-.03.03,0,.06.01.08.04.02.02.04.05.04.08v.29h.48s.06.01.08.04.04.05.04.08-.01.06-.04.08-.05.03-.08.03h-.48v.77s.01.06.04.08.05.04.09.04h.23c.06,0,.11-.03.13-.1s.06-.1.12-.1c.04,0,.06.01.09.03.02.02.03.05.03.09,0,.07-.03.14-.1.21s-.15.11-.26.11Z"/><path class="cls-7" d="M673.14,301.14h.47s.06,0,.11.02v-.17s-.01-.06-.04-.08c-.02-.02-.05-.03-.08-.03h-.45s-.06-.01-.08-.04c-.02-.02-.04-.05-.04-.08s.01-.06.04-.08c.02-.02.05-.03.08-.03h.45c.1,0,.18.03.25.1.07.07.11.15.11.25l.03.89s-.01.06-.04.08-.05.03-.08.03-.06-.01-.09-.03-.04-.05-.04-.08l-.2.12h-.4c-.1,0-.19-.04-.26-.1s-.1-.15-.1-.25v-.14c0-.1.04-.18.11-.25.07-.07.16-.11.25-.11ZM673.73,301.6v-.1s-.02-.06-.04-.08c-.02-.02-.05-.03-.08-.03h-.47s-.06.01-.08.03c-.02.02-.04.05-.04.08v.13s.01.06.04.08c.02.02.05.04.08.04h.34l.26-.15Z"/><path class="cls-7" d="M675.1,300.9l-.33.21v.76s-.01.06-.04.08c-.02.02-.05.04-.08.04s-.06-.01-.08-.04c-.02-.02-.04-.05-.04-.08v-1.13s.01-.06.04-.09c.02-.02.05-.04.08-.04s.06.01.08.04c.02.02.04.05.04.09v.08l.22-.13c.07-.05.15-.07.25-.07h.11c.09,0,.18.03.25.1.07.07.11.15.11.25l.03.9s0,.06-.03.08c-.02.02-.05.04-.09.04-.03,0-.06-.01-.08-.03-.02-.02-.04-.05-.04-.09l-.04-.89c0-.08-.05-.12-.13-.12h-.12s-.07.01-.12.04Z"/></g></svg>